<svg width="130" height="42" viewBox="0 0 130 42" fill="none" xmlns="http://www.w3.org/2000/svg">
<path fill-rule="evenodd" clip-rule="evenodd" d="M24.6237 15.3125C22.3458 15.3125 20.2415 16.0613 18.5391 17.3277C20.0681 18.8727 21.1201 20.7699 21.6209 22.8378C22.3702 22.0271 23.4378 21.5193 24.6237 21.5193C26.8904 21.5193 28.7277 23.372 28.7277 25.6572V32.8986C28.7277 34.6126 30.106 36.002 31.806 36.002C33.5061 36.002 34.8843 34.6126 34.8843 32.8986V25.6572C34.8843 19.9439 30.2903 15.3125 24.6237 15.3125Z" fill="#034EA2"/>
<path fill-rule="evenodd" clip-rule="evenodd" d="M20.521 25.6572C20.521 19.9441 15.9271 15.3125 10.2605 15.3125C4.59365 15.3125 0 19.9441 0 25.6572V32.8986C0 34.6126 1.37807 36.0022 3.0781 36.0022C4.77813 36.0022 6.15621 34.6126 6.15621 32.8986V25.6572C6.15621 23.372 7.9937 21.5195 10.2605 21.5195C12.527 21.5195 14.3645 23.372 14.3645 25.6572V32.8986C14.3645 34.6126 15.7428 36.0022 17.4426 36.0022C19.1429 36.0022 20.521 34.6126 20.521 32.8986V25.6572Z" fill="#034EA2"/>
<path fill-rule="evenodd" clip-rule="evenodd" d="M47.815 29.7955C45.5482 29.7955 43.7109 27.9427 43.7109 25.6575C43.7109 23.3723 45.5482 21.5195 47.815 21.5195C50.0818 21.5195 51.9191 23.3723 51.9191 25.6575C51.9191 27.9427 50.0818 29.7955 47.815 29.7955ZM47.8154 15.3125C42.1487 15.3125 37.5547 19.9439 37.5547 25.6572C37.5547 31.3706 42.1487 36.002 47.8154 36.002C53.482 36.002 58.0758 31.3706 58.0758 25.6572C58.0758 19.9439 53.482 15.3125 47.8154 15.3125Z" fill="#034EA2"/>
<path fill-rule="evenodd" clip-rule="evenodd" d="M71.1588 29.7916C68.8922 29.7916 67.0547 27.9388 67.0547 25.6536C67.0547 23.3684 68.8922 21.5156 71.1588 21.5156C73.4255 21.5156 75.263 23.3684 75.263 25.6536C75.263 27.9388 73.4255 29.7916 71.1588 29.7916ZM78.3413 6C76.6415 6 75.2632 7.38939 75.2632 9.10358V16.1719C74.0063 15.6181 72.6183 15.3103 71.1589 15.3103C65.4923 15.3103 60.8984 19.9417 60.8984 25.6551C60.8984 31.3684 65.4923 35.9998 71.1589 35.9998C72.8796 35.9998 74.5009 35.5722 75.9249 34.8176C76.4887 35.5374 77.3613 35.9998 78.3413 35.9998C80.0413 35.9998 81.4196 34.6104 81.4196 32.8964V25.6551V9.10358C81.4196 7.38939 80.0413 6 78.3413 6Z" fill="#034EA2"/>
<path fill-rule="evenodd" clip-rule="evenodd" d="M101.681 15.3125C99.9813 15.3125 98.603 16.7019 98.603 18.4161V25.6572C98.603 27.9424 96.7657 29.7952 94.499 29.7952C92.2322 29.7952 90.3949 27.9424 90.3949 25.6572V18.4161C90.3949 16.7019 89.0166 15.3125 87.3166 15.3125C85.6168 15.3125 84.2383 16.7019 84.2383 18.4161V25.6572C84.2383 31.3706 88.8323 36.002 94.499 36.002C100.166 36.002 104.76 31.3706 104.76 25.6572V18.4161C104.76 16.7019 103.381 15.3125 101.681 15.3125Z" fill="#034EA2"/>
<path fill-rule="evenodd" clip-rule="evenodd" d="M110.711 15.3125C109.011 15.3125 107.633 16.7019 107.633 18.4161V32.8986C107.633 34.6126 109.011 36.002 110.711 36.002C112.411 36.002 113.789 34.6126 113.789 32.8986V18.4161C113.789 16.7019 112.411 15.3125 110.711 15.3125Z" fill="#034EA2"/>
<path fill-rule="evenodd" clip-rule="evenodd" d="M110.711 12.2068C112.411 12.2068 113.789 10.8174 113.789 9.10338C113.789 7.38939 112.411 6 110.711 6C109.011 6 107.633 7.38939 107.633 9.10338C107.633 10.8174 109.011 12.2068 110.711 12.2068Z" fill="#034EA2"/>
<path fill-rule="evenodd" clip-rule="evenodd" d="M126.921 29.793C124.654 29.793 122.817 27.9402 122.817 25.6551V21.5171H126.921C128.621 21.5171 129.999 20.1277 129.999 18.4139C129.999 16.6997 128.621 15.3103 126.921 15.3103H122.817V9.10358C122.817 7.38939 121.438 6 119.738 6C118.038 6 116.66 7.38939 116.66 9.10358V25.6551C116.66 31.3684 121.254 35.9998 126.921 35.9998C128.621 35.9998 129.999 34.6104 129.999 32.8964C129.999 31.1824 128.621 29.793 126.921 29.793Z" fill="#034EA2"/>
</svg>
